<svg version="1.1" xmlns="http://www.w3.org/2000/svg" xmlns:xlink="http://www.w3.org/1999/xlink" width="267.53333" height="224.54892" viewBox="0,0,267.53333,224.54892"><defs><radialGradient cx="303.49099" cy="260.51241" r="58.74403" gradientUnits="userSpaceOnUse" id="color-1"><stop offset="0" stop-color="#cdcdcd"/><stop offset="1" stop-color="#cdcdcd" stop-opacity="0"/></radialGradient><radialGradient cx="390.32282" cy="191.45646" r="63.73092" gradientUnits="userSpaceOnUse" id="color-2"><stop offset="0" stop-color="#cdcdcd"/><stop offset="1" stop-color="#cdcdcd" stop-opacity="0"/></radialGradient><radialGradient cx="222.91055" cy="203.82469" r="36.84317" gradientUnits="userSpaceOnUse" id="color-3"><stop offset="0" stop-color="#cdcdcd"/><stop offset="1" stop-color="#cdcdcd" stop-opacity="0"/></radialGradient><radialGradient cx="389.06156" cy="305.88894" r="46.38552" gradientUnits="userSpaceOnUse" id="color-4"><stop offset="0" stop-color="#cdcdcd"/><stop offset="1" stop-color="#cdcdcd" stop-opacity="0"/></radialGradient><radialGradient cx="222.54207" cy="305.28718" r="33.96926" gradientUnits="userSpaceOnUse" id="color-5"><stop offset="0" stop-color="#cdcdcd"/><stop offset="1" stop-color="#cdcdcd" stop-opacity="0"/></radialGradient></defs><g transform="translate(-186.23334,-127.72554)"><g data-paper-data="{&quot;isPaintingLayer&quot;:true}" fill-rule="nonzero" stroke="none" stroke-width="0" stroke-linecap="butt" stroke-linejoin="miter" stroke-miterlimit="10" stroke-dasharray="" stroke-dashoffset="0" style="mix-blend-mode: normal"><path d="M303.49101,201.76838c32.29729,0 58.47941,26.30059 58.47941,58.74403c0,32.44344 -26.18212,58.74403 -58.47941,58.74403c-32.29729,0 -58.47942,-26.30059 -58.47942,-58.74403c0,-32.44344 26.18214,-58.74403 58.47942,-58.74403z" fill="url(#color-1)"/><path d="M390.32284,127.72554c35.03906,0 63.44383,28.53329 63.44383,63.73092c0,35.19762 -28.40477,63.73092 -63.44383,63.73092c-35.03906,0 -63.44385,-28.5333 -63.44385,-63.73092c0,-35.19762 28.40479,-63.73091 63.44385,-63.73091z" fill="url(#color-2)"/><path d="M222.91056,166.98151c20.25626,0 36.67721,16.49524 36.67721,36.84317c0,20.34793 -16.42094,36.84317 -36.67721,36.84317c-20.25626,0 -36.67722,-16.49525 -36.67722,-36.84317c0,-20.34793 16.42096,-36.84317 36.67722,-36.84317z" fill="url(#color-3)"/><path d="M389.06157,259.50342c25.50262,0 46.17657,20.7675 46.17657,46.38552c0,25.61802 -20.67395,46.38552 -46.17657,46.38552c-25.50262,0 -46.17658,-20.7675 -46.17658,-46.38552c0,-25.61802 20.67397,-46.38552 46.17658,-46.38552z" fill="url(#color-4)"/><path d="M222.54208,271.31793c18.67619,0 33.81624,15.20855 33.81624,33.96926c0,18.76071 -15.14004,33.96925 -33.81624,33.96925c-18.67619,0 -33.81625,-15.20855 -33.81625,-33.96925c0,-18.76071 15.14006,-33.96925 33.81625,-33.96925z" fill="url(#color-5)"/></g></g></svg>