<svg version="1.1" xmlns="http://www.w3.org/2000/svg" xmlns:xlink="http://www.w3.org/1999/xlink" width="240.42956" height="42.29894" viewBox="0,0,240.42956,42.29894"><defs><radialGradient cx="241.26933" cy="179.97143" r="1.8154" gradientUnits="userSpaceOnUse" id="color-1"><stop offset="0" stop-color="#ff0000"/><stop offset="1" stop-color="#ff0000" stop-opacity="0"/></radialGradient><linearGradient x1="360.72683" y1="191.02574" x2="360.79057" y2="190.27047" gradientUnits="userSpaceOnUse" id="color-2"><stop offset="0" stop-color="#ff0000" stop-opacity="0"/><stop offset="1" stop-color="#ff0000"/></linearGradient><linearGradient x1="360.77823" y1="168.88956" x2="360.84197" y2="169.64483" gradientUnits="userSpaceOnUse" id="color-3"><stop offset="0" stop-color="#ff0000" stop-opacity="0"/><stop offset="1" stop-color="#ff0000"/></linearGradient></defs><g transform="translate(-240.60292,-158.80818)"><g data-paper-data="{&quot;isPaintingLayer&quot;:true}" fill-rule="nonzero" stroke="none" stroke-width="0" stroke-linecap="butt" stroke-linejoin="miter" stroke-miterlimit="10" stroke-dasharray="" stroke-dashoffset="0" style="mix-blend-mode: normal"><path d="M241.45522,179.9925c0,0.54167 -0.10332,0.98079 -0.23077,0.98079c-0.12745,0 -0.23077,-0.43911 -0.23077,-0.98079c0,-0.54167 0.10332,-0.98079 0.23077,-0.98079c0.12745,0 0.23077,0.43911 0.23077,0.98079z" fill="#ff0000"/><path d="M241.26933,179.0225c0.36805,0 0.66641,0.42485 0.66641,0.94894c0,0.52408 -0.29836,0.94894 -0.66641,0.94894c-0.36805,0 -0.66641,-0.42485 -0.66641,-0.94894c0,-0.52408 0.29836,-0.94894 0.66641,-0.94894z" fill="url(#color-1)"/><path d="M241.48533,180.41128v-1.00427l239.4803,-19.99689l0.06685,41.02145z" fill="#ff0000"/><path d="M480.24854,200.35185l-0.06374,0.75527l-238.91597,-20.16276l0.06374,-0.75528z" data-paper-data="{&quot;index&quot;:null}" fill="url(#color-2)"/><path d="M241.38397,179.72622l-0.06374,-0.75528l238.91597,-20.16276l0.06374,0.75527z" data-paper-data="{&quot;index&quot;:null}" fill="url(#color-3)"/></g></g></svg>